<svg xmlns="http://www.w3.org/2000/svg" xmlns:xlink="http://www.w3.org/1999/xlink" width="43" height="49" viewBox="0 0 43 49">
  <defs>
    <clipPath id="clip-path">
      <rect id="Rectangle_17" data-name="Rectangle 17" width="40" height="46.18" fill="#f7444e" stroke="#707070" stroke-width="1"/>
    </clipPath>
    <clipPath id="clip-path-2">
      <rect id="Rectangle_1510" data-name="Rectangle 1510" width="19" height="12" fill="#8d8d8d" stroke="#707070" stroke-width="1"/>
    </clipPath>
  </defs>
  <g id="Group_383" data-name="Group 383" transform="translate(0 2.82)">
    <g id="Mask_Group_107" data-name="Mask Group 107" clip-path="url(#clip-path)">
      <path id="yurt" d="M39.994,39.349,37.466,20.063a.566.566,0,0,0-.3-.443L20.19,11.489l-.03-.012-.01,0a.445.445,0,0,0-.066-.018l-.014,0a.429.429,0,0,0-.139,0l-.014,0a.434.434,0,0,0-.066.018l-.01,0-.03.012L2.834,19.62a.566.566,0,0,0-.3.443L.006,39.349a.635.635,0,0,0,.114.459.471.471,0,0,0,.376.2H39.5a.471.471,0,0,0,.376-.2A.635.635,0,0,0,39.994,39.349Zm-1.627-4.761H31.155L30.128,20.721h6.421ZM20.5,24.683H22.66a2.655,2.655,0,0,1,2.458,2.611l.836,11.568H20.5ZM19.5,38.862H14.045l.836-11.568a2.655,2.655,0,0,1,2.458-2.611H19.5Zm6.6-11.664a3.723,3.723,0,0,0-3.447-3.661H17.339A3.723,3.723,0,0,0,13.893,27.2l-.534,7.389H9.84l1.027-13.867H29.133L30.16,34.588H26.641Zm3.644-7.622L23.6,14.364l10.882,5.213Zm-1.675,0H11.924L20,12.728Zm-17.826,0H5.513L16.4,14.364Zm-6.8,1.145H9.872L8.845,34.588H1.633ZM1.483,35.733H8.76l-.232,3.129H1.072Zm8.273,0h3.52l-.226,3.129H9.524ZM26.95,38.862l-.226-3.129h3.52l.232,3.129Zm4.521,0-.232-3.129h7.278l.41,3.129Z" transform="translate(0 -2.636)" fill="#f7444e"/>
    </g>
    <g id="Mask_Group_114" data-name="Mask Group 114" transform="translate(24 -2.82)" clip-path="url(#clip-path-2)">
      <path id="cloud" d="M11.894,6.112A4,4,0,0,0,7.953,2.333,4.113,4.113,0,0,0,4.7,3.969c-.018-.009-.036-.015-.054-.024C4.6,3.922,4.552,3.9,4.5,3.882l-.08-.029c-.047-.017-.1-.031-.144-.045L4.2,3.787c-.052-.012-.106-.021-.16-.029-.024,0-.047-.008-.07-.011A2.094,2.094,0,0,0,1.633,5.833c0,.03,0,.059,0,.088h0A3.227,3.227,0,0,0,0,8.669a3,3,0,0,0,3,3H8.716c.024,0,.048,0,.073,0l.014,0,.031,0c.024,0,.048,0,.072,0h2.287A2.81,2.81,0,0,0,14,8.86,2.872,2.872,0,0,0,11.894,6.112Zm-.7,5.088H8.906l-.041,0-.063,0-.046,0-.04,0H3A2.533,2.533,0,0,1,.467,8.669a2.774,2.774,0,0,1,1.5-2.392L2.1,6.214V6.067c0-.03,0-.06,0-.09l0-.037,0-.049c0-.019,0-.038,0-.057A1.622,1.622,0,0,1,3.947,4.216L4,4.224a1.591,1.591,0,0,1,.184.041l.025.006a1.59,1.59,0,0,1,.195.075l.049.024a1.63,1.63,0,0,1,.912,1.463.233.233,0,0,0,.467,0,2.1,2.1,0,0,0-.747-1.6A3.7,3.7,0,0,1,7.953,2.8a3.522,3.522,0,0,1,3.465,3.241,4.457,4.457,0,0,0-.953.029.233.233,0,0,0,.035.464l.035,0a4.286,4.286,0,0,1,1.093,0,2.391,2.391,0,0,1,1.905,2.33A2.343,2.343,0,0,1,11.193,11.2Z" transform="translate(3 -0.68)" fill="#8d8d8d" stroke="#707070" stroke-width="1"/>
    </g>
  </g>
</svg>
