<?xml version="1.0"?>
<svg xmlns="http://www.w3.org/2000/svg" height="512px" viewBox="0 0 384 384" width="512px"><g><path d="m192 0c-105.871094 0-192 86.128906-192 192s86.128906 192 192 192 192-86.128906 192-192-86.128906-192-192-192zm0 352c-88.222656 0-160-71.777344-160-160s71.777344-160 160-160 160 71.777344 160 160-71.777344 160-160 160zm0 0" data-original="#000000" class="active-path" data-old_color="#000000" fill="#3F65AE"/><path d="m224 288h-16v-128c0-8.832031-7.167969-16-16-16h-24c-8.832031 0-16 7.167969-16 16s7.167969 16 16 16h8v112h-16c-8.832031 0-16 7.167969-16 16s7.167969 16 16 16h64c8.832031 0 16-7.167969 16-16s-7.167969-16-16-16zm0 0" data-original="#000000" class="active-path" data-old_color="#000000" fill="#3F65AE"/><path d="m192 112c13.230469 0 24-10.769531 24-24s-10.769531-24-24-24-24 10.769531-24 24 10.769531 24 24 24zm0 0" data-original="#000000" class="active-path" data-old_color="#000000" fill="#3F65AE"/></g> </svg>
