<svg xmlns="http://www.w3.org/2000/svg" xmlns:xlink="http://www.w3.org/1999/xlink" width="30" height="30" viewBox="0 0 30 30">
  <defs>
    <clipPath id="clip-path">
      <rect id="Rectangle_3209" data-name="Rectangle 3209" width="30" height="30" transform="translate(340 638)" fill="#686868" stroke="#707070" stroke-width="1"/>
    </clipPath>
  </defs>
  <g id="Mask_Group_174" data-name="Mask Group 174" transform="translate(-340 -638)" clip-path="url(#clip-path)">
    <g id="destination" transform="translate(340 638)">
      <path id="Path_12163" data-name="Path 12163" d="M12.5,16a5,5,0,1,0-5,5A5,5,0,0,0,12.5,16Zm-9,0a4,4,0,1,1,4,4A4,4,0,0,1,3.5,16Zm0,0" fill="#f7444e"/>
      <path id="Path_12164" data-name="Path 12164" d="M7.868,27.838C8.159,27.52,15,20.014,15,16A7.5,7.5,0,0,0,0,16c0,4.014,6.841,11.521,7.132,11.838a.5.5,0,0,0,.737,0ZM1,16a6.5,6.5,0,0,1,13,0c0,3.134-5.073,9.126-6.5,10.75C6.073,25.126,1,19.135,1,16Zm0,0" fill="#f7444e"/>
      <path id="Path_12165" data-name="Path 12165" d="M16,23H27a3,3,0,0,0,0-6H19a2,2,0,0,1,0-4h6.5V12H19a3,3,0,0,0,0,6h8a2,2,0,0,1,0,4H16a2.5,2.5,0,0,0,0,5H28a1,1,0,0,1,0,2H7.5v1H28a2,2,0,0,0,0-4H16a1.5,1.5,0,0,1,0-3Zm0,0" fill="#686868"/>
      <path id="Path_12166" data-name="Path 12166" d="M28,4.5A2.5,2.5,0,1,0,25.5,7,2.5,2.5,0,0,0,28,4.5Zm-4,0A1.5,1.5,0,1,1,25.5,6,1.5,1.5,0,0,1,24,4.5Zm0,0" fill="#f7444e"/>
      <path id="Path_12167" data-name="Path 12167" d="M25.156,10.863a.5.5,0,0,0,.688,0C26.27,10.459,30,6.856,30,4.5a4.5,4.5,0,0,0-9,0C21,6.856,24.73,10.459,25.156,10.863ZM25.5,1A3.5,3.5,0,0,1,29,4.5c0,1.48-2.277,4.072-3.5,5.3C24.277,8.572,22,5.98,22,4.5A3.5,3.5,0,0,1,25.5,1Zm0,0" fill="#f7444e"/>
    </g>
  </g>
</svg>
