<svg xmlns="http://www.w3.org/2000/svg" xmlns:xlink="http://www.w3.org/1999/xlink" width="40" height="40" viewBox="0 0 40 40">
  <defs>
    <clipPath id="clip-path">
      <rect id="Rectangle_19" data-name="Rectangle 19" width="40" height="40" fill="#f7444e" stroke="#707070" stroke-width="1"/>
    </clipPath>
  </defs>
  <g id="Mask_Group_9" data-name="Mask Group 9" clip-path="url(#clip-path)">
    <g id="museum" transform="translate(0.443)">
      <g id="Group_5" data-name="Group 5">
        <g id="Group_4" data-name="Group 4">
          <path id="Path_38" data-name="Path 38" d="M12.272,18.465H35.45a.689.689,0,0,0,.689-.689V.689A.689.689,0,0,0,35.45,0H12.272a.689.689,0,0,0-.689.689V17.776A.689.689,0,0,0,12.272,18.465Zm1.664-1.378,1.216-1.216H32.57l1.216,1.216Zm1.62-2.594V3.973H32.166v10.52Zm19.2,1.62L33.545,14.9V3.569l1.216-1.216ZM33.786,1.378,32.57,2.594H15.152L13.936,1.378h19.85Zm-20.824.975,1.216,1.216V14.9l-1.216,1.216V2.353Z" transform="translate(-4.304)" fill="#f7444e"/>
          <path id="Path_39" data-name="Path 39" d="M39.089,48.7H38V34.64s0-.005,0-.008a2.55,2.55,0,1,0-3.5,0s0,.005,0,.008v2.068a9.139,9.139,0,0,1-12.573.01V34.64s0-.005,0-.008a2.55,2.55,0,1,0-3.5,0s0,.005,0,.008v2.1a9.138,9.138,0,0,1-12.5.01V34.64s0-.005,0-.008a2.55,2.55,0,1,0-3.5,0s0,.005,0,.008V48.7H1.354a.689.689,0,0,0,0,1.378H39.089a.689.689,0,0,0,0-1.378Zm-34.53,0H3.817V35.33h.742ZM4.188,33.951A1.171,1.171,0,1,1,5.36,32.78,1.173,1.173,0,0,1,4.188,33.951ZM18.434,48.7H5.938V38.547a10.529,10.529,0,0,0,12.5-.008V48.7Zm2.121,0h-.742V35.33h.742Zm-.371-14.747a1.171,1.171,0,1,1,1.171-1.171A1.173,1.173,0,0,1,20.183,33.951ZM34.505,48.7H21.933V38.518a10.526,10.526,0,0,0,12.573-.008Zm2.121,0h-.742V35.33h.742Zm-.371-14.747a1.171,1.171,0,1,1,1.171-1.171A1.173,1.173,0,0,1,36.255,33.951Z" transform="translate(-0.665 -10.077)" fill="#8d8d8d"/>
        </g>
      </g>
    </g>
  </g>
</svg>
