<svg xmlns="http://www.w3.org/2000/svg" width="45.65" height="43.453" viewBox="0 0 45.65 43.453">
  <g id="Group_675" data-name="Group 675" transform="translate(0.5 0.69)">
    <g id="Group_666" data-name="Group 666" transform="translate(3.351 18.398)">
      <rect id="Rectangle_3314" data-name="Rectangle 3314" width="37.125" height="23.042" transform="translate(0.412 0.412)" fill="#fff" stroke="rgba(0,0,0,0)" stroke-width="1"/>
      <path id="Path_12180" data-name="Path 12180" d="M367.8,153.137v22.217H331.5V153.137h36.3m.824-.824H330.678v23.865h37.949V152.313Z" transform="translate(-330.678 -152.313)" fill="#161615" stroke="rgba(0,0,0,0)" stroke-width="1"/>
    </g>
    <g id="Group_667" data-name="Group 667" transform="translate(4.128)">
      <path id="Path_12181" data-name="Path 12181" d="M333.564,118.45v-4.973l1.73-4.438,8.918,4.412v5Z" transform="translate(-333.153 -108.47)" fill="#f9af0b" stroke="rgba(0,0,0,0)" stroke-width="1"/>
      <path id="Path_12182" data-name="Path 12182" d="M334.927,108.8l8.285,4.1v4.331h-9.823v-4.484l1.538-3.946m-.441-1.138-.327.838-1.538,3.947-.056.144v5.463h11.472v-5.666l-.459-.227-8.285-4.1-.806-.4Z" transform="translate(-332.565 -107.659)" fill="#161615" stroke="rgba(0,0,0,0)" stroke-width="1"/>
    </g>
    <g id="Group_668" data-name="Group 668" transform="translate(29.051)">
      <path id="Path_12183" data-name="Path 12183" d="M394.055,118.45v-5l8.918-4.412,1.73,4.438v4.973Z" transform="translate(-393.643 -108.47)" fill="#f9af0b" stroke="rgba(0,0,0,0)" stroke-width="1"/>
      <path id="Path_12184" data-name="Path 12184" d="M402.164,108.8l1.538,3.946v4.484h-9.823V112.9l8.285-4.1m.441-1.138-.806.4-8.285,4.1-.459.227v5.666h11.471v-5.463l-.056-.144-1.539-3.947-.327-.838Z" transform="translate(-393.055 -107.659)" fill="#161615" stroke="rgba(0,0,0,0)" stroke-width="1"/>
    </g>
    <g id="Group_669" data-name="Group 669" transform="translate(4.128 5.399)">
      <rect id="Rectangle_3315" data-name="Rectangle 3315" width="10.648" height="4.169" transform="translate(0.412 0.412)" fill="#f9af0b" stroke="rgba(0,0,0,0)" stroke-width="1"/>
      <path id="Path_12185" data-name="Path 12185" d="M343.212,121.586v3.345h-9.823v-3.345h9.823m.824-.824H332.565v4.993h11.472v-4.993Z" transform="translate(-332.565 -120.762)" fill="#161615" stroke="rgba(0,0,0,0)" stroke-width="1"/>
    </g>
    <g id="Group_670" data-name="Group 670" transform="translate(29.051 5.399)">
      <rect id="Rectangle_3316" data-name="Rectangle 3316" width="10.648" height="4.169" transform="translate(0.412 0.412)" fill="#f9af0b" stroke="rgba(0,0,0,0)" stroke-width="1"/>
      <path id="Path_12186" data-name="Path 12186" d="M403.7,121.586v3.345h-9.823v-3.345H403.7m.824-.824H393.055v4.993h11.471v-4.993Z" transform="translate(-393.055 -120.762)" fill="#161615" stroke="rgba(0,0,0,0)" stroke-width="1"/>
    </g>
    <g id="Group_671" data-name="Group 671" transform="translate(15.527 18.398)">
      <rect id="Rectangle_3317" data-name="Rectangle 3317" width="12.772" height="23.042" transform="translate(0.412 0.412)" fill="#f9af0b" stroke="rgba(0,0,0,0)" stroke-width="1"/>
      <path id="Path_12187" data-name="Path 12187" d="M373,153.137v22.217H361.055V153.137H373m.824-.824h-13.6v23.865h13.6V152.313Z" transform="translate(-360.231 -152.313)" fill="#161615" stroke="rgba(0,0,0,0)" stroke-width="1"/>
    </g>
    <rect id="Rectangle_3318" data-name="Rectangle 3318" width="36.301" height="3.7" transform="translate(4.175 19.222)" fill="#212121" stroke="rgba(0,0,0,0)" stroke-width="1" opacity="0.37" style="mix-blend-mode: multiply;isolation: isolate"/>
    <g id="Group_672" data-name="Group 672" transform="translate(13.952 2.053)">
      <rect id="Rectangle_3319" data-name="Rectangle 3319" width="15.923" height="7.515" transform="translate(0.412 0.412)" fill="#f9af0b" stroke="rgba(0,0,0,0)" stroke-width="1"/>
      <path id="Path_12188" data-name="Path 12188" d="M372.331,113.466v6.691h-15.1v-6.691h15.1m.824-.824H356.408v8.339h16.747v-8.339Z" transform="translate(-356.408 -112.642)" fill="#161615" stroke="rgba(0,0,0,0)" stroke-width="1"/>
    </g>
    <line id="Line_148" data-name="Line 148" x2="3.143" transform="translate(23.816 4.273)" fill="none" stroke="#fff" stroke-miterlimit="10" stroke-width="2"/>
    <line id="Line_149" data-name="Line 149" x2="3.143" transform="translate(35.45 7.485)" fill="none" stroke="#fff" stroke-miterlimit="10" stroke-width="2"/>
    <line id="Line_150" data-name="Line 150" x2="3.143" transform="translate(9.587 7.485)" fill="none" stroke="#fff" stroke-miterlimit="10" stroke-width="2"/>
    <line id="Line_151" data-name="Line 151" x2="5.639" transform="translate(17.407 4.273)" fill="none" stroke="#fff" stroke-miterlimit="10" stroke-width="2"/>
    <g id="Group_673" data-name="Group 673" transform="translate(0 8.744)">
      <rect id="Rectangle_3320" data-name="Rectangle 3320" width="43.826" height="10.478" transform="translate(0.412 0.412)" fill="#fff" stroke="rgba(0,0,0,0)" stroke-width="1"/>
      <path id="Path_12189" data-name="Path 12189" d="M366.371,129.705v9.654h-43v-9.654h43m.824-.824h-44.65v11.3H367.2v-11.3Z" transform="translate(-322.545 -128.881)" fill="#161615" stroke="rgba(0,0,0,0)" stroke-width="1"/>
    </g>
    <g id="Group_674" data-name="Group 674" transform="translate(13.952 8.744)">
      <rect id="Rectangle_3321" data-name="Rectangle 3321" width="15.923" height="10.478" transform="translate(0.412 0.412)" fill="#f9af0b" stroke="rgba(0,0,0,0)" stroke-width="1"/>
      <path id="Path_12190" data-name="Path 12190" d="M372.331,129.705v9.654h-15.1v-9.654h15.1m.824-.824H356.408v11.3h16.747v-11.3Z" transform="translate(-356.408 -128.881)" fill="#161615" stroke="rgba(0,0,0,0)" stroke-width="1"/>
    </g>
    <line id="Line_152" data-name="Line 152" x2="9.553" transform="translate(17.407 11.794)" fill="none" stroke="#fff" stroke-miterlimit="10" stroke-width="2"/>
    <line id="Line_153" data-name="Line 153" x2="9.553" transform="translate(32.731 17.402)" fill="none" stroke="#161615" stroke-miterlimit="10" stroke-width="2" opacity="0.37" style="mix-blend-mode: multiply;isolation: isolate"/>
    <line id="Line_154" data-name="Line 154" y2="14.678" transform="translate(38.093 24.386)" fill="none" stroke="#161615" stroke-miterlimit="10" stroke-width="2" opacity="0.37" style="mix-blend-mode: multiply;isolation: isolate"/>
    <line id="Line_155" data-name="Line 155" x2="9.553" transform="translate(2.828 17.402)" fill="none" stroke="#161615" stroke-miterlimit="10" stroke-width="2" opacity="0.37" style="mix-blend-mode: multiply;isolation: isolate"/>
  </g>
</svg>
