<svg xmlns="http://www.w3.org/2000/svg" xmlns:xlink="http://www.w3.org/1999/xlink" width="14" height="14" viewBox="0 0 14 14">
  <defs>
    <clipPath id="clip-path">
      <rect id="Rectangle_3304" data-name="Rectangle 3304" width="14" height="14" transform="translate(345 194)" fill="#686868" stroke="#707070" stroke-width="1"/>
    </clipPath>
  </defs>
  <g id="Mask_Group_178" data-name="Mask Group 178" transform="translate(-345 -194)" clip-path="url(#clip-path)">
    <g id="delete_1_" data-name="delete (1)" transform="translate(346.661 194)">
      <path id="Path_12176" data-name="Path 12176" d="M3.068,1.273A.717.717,0,0,1,3.811.55H6.866a.717.717,0,0,1,.743.722v.791h.55V1.273A1.268,1.268,0,0,0,6.866,0H3.811A1.268,1.268,0,0,0,2.518,1.273v.791h.55Zm0,0" fill="#686868"/>
      <path id="Path_12177" data-name="Path 12177" d="M2.085,14H8.593a1.172,1.172,0,0,0,1.114-1.238v-8.5H.97v8.5A1.172,1.172,0,0,0,2.085,14ZM7.093,5.579a.275.275,0,1,1,.55,0v6.5a.275.275,0,1,1-.55,0Zm-2.029,0a.275.275,0,1,1,.55,0v6.5a.275.275,0,1,1-.55,0Zm-2.029,0a.275.275,0,1,1,.55,0v6.5a.275.275,0,1,1-.55,0Zm0,0" fill="#686868"/>
      <path id="Path_12178" data-name="Path 12178" d="M.688,3.715h9.3a.688.688,0,0,0,0-1.376H.688a.688.688,0,0,0,0,1.376Zm0,0" fill="#686868"/>
    </g>
  </g>
</svg>
