<svg xmlns="http://www.w3.org/2000/svg" xmlns:xlink="http://www.w3.org/1999/xlink" width="40" height="40" viewBox="0 0 40 40">
  <defs>
    <clipPath id="clip-path">
      <rect id="Rectangle_16" data-name="Rectangle 16" width="40" height="40" fill="#f7444e" stroke="#707070" stroke-width="1"/>
    </clipPath>
  </defs>
  <g id="Mask_Group_100" data-name="Mask Group 100" clip-path="url(#clip-path)">
    <g id="piano" transform="translate(0 0)">
      <path id="Path_2236" data-name="Path 2236" d="M39.354,25.807h-.645v-7.1a.645.645,0,0,0-.645-.645h-3.6l-12.9-12.9,2.124-2.124a.644.644,0,0,0,0-.912L21.746.19a.644.644,0,0,0-.912,0L2.959,18.065H1.936a.645.645,0,0,0-.645.645v7.1H.646A.645.645,0,0,0,0,26.452v3.871a.645.645,0,0,0,.645.645h.69l.6,8.433a.645.645,0,0,0,.643.6H5.162a.646.646,0,0,0,.644-.6l.6-8.433H33.593l.6,8.433a.645.645,0,0,0,.643.6h2.581a.646.646,0,0,0,.644-.6l.6-8.433h.69A.645.645,0,0,0,40,30.323V26.452a.645.645,0,0,0-.645-.645Zm-6.719-7.742H25.806v-1.29a.642.642,0,0,0-.189-.456l-1.935-1.935a.643.643,0,0,0-.456-.189H14.839a.645.645,0,0,0-.645.645v3.226H8.655L20.645,6.075ZM15.484,20.646V15.485h3.871v5.161Zm5.161-5.161h2.313l1.557,1.557v3.6H20.645ZM21.29,1.559l1.023,1.023L6.83,18.065H4.784ZM2.581,19.356H14.194v1.935a.645.645,0,0,0,.645.645H25.161a.645.645,0,0,0,.645-.645V19.356H37.419v6.451h-1.29V23.872a.645.645,0,0,0-.645-.645H4.516a.645.645,0,0,0-.645.645v1.935H2.581Zm2.581,6.451v-1.29H7.742v1.29Zm3.871-1.29h1.29v1.29H9.033Zm2.581,0H12.9v1.29h-1.29Zm2.581,0h1.29v1.29h-1.29Zm2.581,0h1.29v1.29h-1.29Zm2.581,0h1.29v1.29h-1.29Zm2.581,0h1.29v1.29h-1.29Zm2.581,0h1.29v1.29h-1.29Zm2.581,0h1.29v1.29H27.1Zm2.581,0h1.29v1.29h-1.29Zm2.581,0h2.581v1.29H32.258ZM3.182,38.71l-.092-1.29H4.653l-.092,1.29ZM4.745,36.13H3L2.63,30.968H5.115ZM35.439,38.71l-.092-1.29H36.91l-.092,1.29ZM37,36.13H35.255l-.368-5.161h2.485Zm1.706-6.451H1.291V27.1H38.709Zm0,0" transform="translate(-0.001 0)" fill="#f7444e"/>
      <path id="Path_2237" data-name="Path 2237" d="M43.548,9.679a1.938,1.938,0,0,0,1.935-1.935V3.029l3.871-1.452V4.636a1.916,1.916,0,0,0-.645-.118,1.935,1.935,0,1,0,1.935,1.935V.646a.644.644,0,0,0-.872-.6L44.612,1.978a.645.645,0,0,0-.419.6V5.926a1.916,1.916,0,0,0-.645-.118,1.935,1.935,0,0,0,0,3.871ZM48.709,7.1a.645.645,0,1,1,.645-.645A.646.646,0,0,1,48.709,7.1Zm-5.161,0a.645.645,0,1,1-.645.645A.646.646,0,0,1,43.548,7.1Zm0,0" transform="translate(-13.871 0)" fill="#8d8d8d"/>
      <path id="Path_2238" data-name="Path 2238" d="M3.871,9.678A1.938,1.938,0,0,0,5.807,7.743V2.2L7.931,4.328l.912-.912L5.618.19a.645.645,0,0,0-1.1.456v5.28a1.916,1.916,0,0,0-.645-.118,1.935,1.935,0,1,0,0,3.871Zm0-2.581a.645.645,0,1,1-.645.645A.646.646,0,0,1,3.871,7.1Zm0,0" transform="translate(-0.646 0)" fill="#8d8d8d"/>
      <path id="Path_2239" data-name="Path 2239" d="M.968,16.453H3.549v1.29H.968Zm0,0" transform="translate(-0.323 -5.484)" fill="#8d8d8d"/>
      <path id="Path_2240" data-name="Path 2240" d="M10.645,9.679h1.29v2.581h-1.29Zm0,0" transform="translate(-3.549 -3.226)" fill="#8d8d8d"/>
      <path id="Path_2241" data-name="Path 2241" d="M13.549,1.937h2.581v1.29H13.549Zm0,0" transform="translate(-4.517 -0.646)" fill="#8d8d8d"/>
      <path id="Path_2242" data-name="Path 2242" d="M39.677.969h1.29V3.55h-1.29Zm0,0" transform="translate(-13.226 -0.323)" fill="#8d8d8d"/>
      <path id="Path_2243" data-name="Path 2243" d="M51.29,14.517H53.87v1.29H51.29Zm0,0" transform="translate(-17.097 -4.839)" fill="#8d8d8d"/>
      <path id="Path_2244" data-name="Path 2244" d="M58.064,8.711h1.29v2.581h-1.29Zm0,0" transform="translate(-19.355 -2.904)" fill="#8d8d8d"/>
      <path id="Path_2245" data-name="Path 2245" d="M47.7,18.617l.912-.913L50.55,19.64l-.912.912Zm0,0" transform="translate(-15.901 -5.901)" fill="#8d8d8d"/>
    </g>
  </g>
</svg>
