<svg xmlns="http://www.w3.org/2000/svg" xmlns:xlink="http://www.w3.org/1999/xlink" width="40" height="40" viewBox="0 0 40 40">
  <defs>
    <clipPath id="clip-path">
      <rect id="Rectangle_20" data-name="Rectangle 20" width="40" height="40" fill="#f7444e" stroke="#707070" stroke-width="1"/>
    </clipPath>
  </defs>
  <g id="Mask_Group_8" data-name="Mask Group 8" clip-path="url(#clip-path)">
    <g id="karaoke" transform="translate(0 0.092)">
      <path id="Path_17" data-name="Path 17" d="M9.763,10.425a.643.643,0,0,0,.467.193.664.664,0,0,0,.26-.047.711.711,0,0,0,.36-.36.669.669,0,0,0,.047-.26.645.645,0,0,0-.193-.466.678.678,0,0,0-.213-.147A.775.775,0,0,0,10.1,9.3l-.127.04a.608.608,0,0,0-.114.06.929.929,0,0,0-.187.187c-.02.033-.04.073-.06.113a.9.9,0,0,0-.04.127.824.824,0,0,0-.007.127.622.622,0,0,0,.193.473Zm0,0" transform="translate(-3.19 -3.096)" fill="#f7444e"/>
      <path id="Path_18" data-name="Path 18" d="M7.64,11.609a.649.649,0,0,0-.147.727.581.581,0,0,0,.147.213.653.653,0,0,0,.473.2.692.692,0,0,0,.253-.053.581.581,0,0,0,.213-.147.679.679,0,0,0,.147-.213.667.667,0,0,0-1.087-.727Zm0,0" transform="translate(-2.48 -3.807)" fill="#f7444e"/>
      <path id="Path_19" data-name="Path 19" d="M6.46,13.723a.654.654,0,0,0-.94,0,.556.556,0,0,0-.147.22.649.649,0,0,0,.147.727.668.668,0,0,0,.94,0,.671.671,0,0,0,.193-.473.656.656,0,0,0-.047-.253.639.639,0,0,0-.147-.22Zm0,0" transform="translate(-1.773 -4.508)" fill="#f7444e"/>
      <path id="Path_20" data-name="Path 20" d="M10.227,14.863a.7.7,0,0,0,.26-.053.662.662,0,0,0,.213-.14.672.672,0,0,0,.193-.473.662.662,0,0,0-.047-.253.643.643,0,0,0-.147-.22.654.654,0,0,0-.94,0,.638.638,0,0,0-.146.22.66.66,0,0,0,.613.92Zm0,0" transform="translate(-3.187 -4.508)" fill="#f7444e"/>
      <path id="Path_21" data-name="Path 21" d="M8.58,15.85a.689.689,0,0,0-.94,0,.556.556,0,0,0-.147.22.663.663,0,1,0,1.233,0,.636.636,0,0,0-.147-.22Zm0,0" transform="translate(-2.48 -5.222)" fill="#f7444e"/>
      <path id="Path_22" data-name="Path 22" d="M12.357,8.5a.655.655,0,0,0,.253-.047.674.674,0,0,0,.214-.146.583.583,0,0,0,.146-.214.689.689,0,0,0,.053-.253.655.655,0,0,0-.2-.473.588.588,0,0,0-.214-.147.681.681,0,0,0-.727.147.649.649,0,0,0-.193.473.66.66,0,0,0,.667.66Zm0,0" transform="translate(-3.897 -2.39)" fill="#f7444e"/>
      <path id="Path_23" data-name="Path 23" d="M14.223,6.333a.661.661,0,0,0,.253.047.672.672,0,0,0,.473-.193A.667.667,0,0,0,14.223,5.1a.553.553,0,0,0-.22.146.68.68,0,0,0-.147.214.661.661,0,0,0-.047.253A.648.648,0,0,0,14,6.186a.637.637,0,0,0,.22.147Zm0,0" transform="translate(-4.603 -1.684)" fill="#f7444e"/>
      <path id="Path_24" data-name="Path 24" d="M6.46,5.238a.678.678,0,0,0-.727-.14.6.6,0,0,0-.36.36.67.67,0,0,0-.053.253.689.689,0,0,0,.193.473.979.979,0,0,0,.22.147.662.662,0,0,0,.253.047.45.45,0,0,0,.133-.013.852.852,0,0,0,.12-.033,1.1,1.1,0,0,0,.12-.067,1.035,1.035,0,0,0,.1-.08.979.979,0,0,0,.08-.1,1.083,1.083,0,0,0,.067-.12.763.763,0,0,0,.033-.12.446.446,0,0,0,.013-.133.655.655,0,0,0-.047-.253.969.969,0,0,0-.147-.22Zm0,0" transform="translate(-1.773 -1.683)" fill="#f7444e"/>
      <path id="Path_25" data-name="Path 25" d="M8.58,3.116l-.1-.08a.723.723,0,0,0-.24-.1.641.641,0,0,0-.387.04.652.652,0,0,0-.213.14.693.693,0,0,0-.2.473.922.922,0,0,0,.013.133l.04.12a1.032,1.032,0,0,0,.06.12,1.151,1.151,0,0,0,.087.1.652.652,0,0,0,.213.14.558.558,0,0,0,.253.053.879.879,0,0,0,.133-.013.723.723,0,0,0,.24-.1,1.076,1.076,0,0,0,.1-.08.526.526,0,0,0,.08-.1,1.107,1.107,0,0,0,.067-.12.807.807,0,0,0,.033-.12.45.45,0,0,0,.013-.133.661.661,0,0,0-.047-.253A.8.8,0,0,0,8.58,3.116Zm0,0" transform="translate(-2.48 -0.974)" fill="#f7444e"/>
      <path id="Path_26" data-name="Path 26" d="M4.34,7.363a1.21,1.21,0,0,0-.1-.087,1,1,0,0,0-.12-.06L4,7.176a.639.639,0,0,0-.387.04.664.664,0,0,0-.22.147A.691.691,0,0,0,3.2,7.83a.87.87,0,0,0,.013.133.725.725,0,0,0,.1.24l.08.1a.786.786,0,0,0,.22.146.657.657,0,0,0,.254.047A.46.46,0,0,0,4,8.483a.8.8,0,0,0,.12-.034,1,1,0,0,0,.12-.067.517.517,0,0,0,.1-.08,1.062,1.062,0,0,0,.08-.1.719.719,0,0,0,.1-.24.961.961,0,0,0,.013-.133.559.559,0,0,0-.053-.254.666.666,0,0,0-.14-.213Zm0,0" transform="translate(-1.067 -2.387)" fill="#f7444e"/>
      <path id="Path_27" data-name="Path 27" d="M8.58,7.363a1.206,1.206,0,0,0-.1-.087.943.943,0,0,0-.113-.06l-.127-.04a.643.643,0,0,0-.387.04.711.711,0,0,0-.36.36.667.667,0,0,0-.053.254.913.913,0,0,0,.013.133c.013.04.027.087.04.127a.921.921,0,0,0,.06.114,1.2,1.2,0,0,0,.087.1.669.669,0,0,0,.213.146.655.655,0,0,0,.253.047.461.461,0,0,0,.133-.013.9.9,0,0,0,.127-.034.966.966,0,0,0,.113-.067.578.578,0,0,0,.18-.18,1.017,1.017,0,0,0,.067-.114.894.894,0,0,0,.033-.127.449.449,0,0,0,.013-.133.662.662,0,0,0-.047-.254.678.678,0,0,0-.147-.213Zm0,0" transform="translate(-2.48 -2.388)" fill="#f7444e"/>
      <path id="Path_28" data-name="Path 28" d="M9.617,5.97c.02.04.04.073.06.113a1.206,1.206,0,0,0,.087.1.383.383,0,0,0,.1.08.642.642,0,0,0,.114.067.941.941,0,0,0,.127.033.406.406,0,0,0,.127.013.661.661,0,0,0,.473-.193A.649.649,0,0,0,10.9,5.71a.406.406,0,0,0-.013-.127.7.7,0,0,0-.033-.127.8.8,0,0,0-.147-.22.655.655,0,0,0-.213-.14.646.646,0,0,0-.387-.04.456.456,0,0,0-.127.04.369.369,0,0,0-.114.06c-.033.027-.073.053-.1.08a.672.672,0,0,0-.193.473.908.908,0,0,0,.007.133c.013.04.027.087.04.127Zm0,0" transform="translate(-3.19 -1.681)" fill="#f7444e"/>
      <path id="Path_29" data-name="Path 29" d="M11.883,4.063a.383.383,0,0,0,.1.08,1.043,1.043,0,0,0,.113.067.887.887,0,0,0,.127.033.446.446,0,0,0,.133.013.645.645,0,0,0,.467-.193.553.553,0,0,0,.146-.22.664.664,0,0,0,.053-.253.679.679,0,0,0-.2-.473.657.657,0,0,0-.214-.14.635.635,0,0,0-.386-.04.722.722,0,0,0-.24.1c-.033.027-.073.053-.1.08a.672.672,0,0,0-.193.473.661.661,0,0,0,.047.253.637.637,0,0,0,.147.22Zm0,0" transform="translate(-3.897 -0.974)" fill="#f7444e"/>
      <path id="Path_30" data-name="Path 30" d="M6.607,9.7a.639.639,0,0,0-.067-.113.372.372,0,0,0-.08-.1,1.052,1.052,0,0,0-.1-.087c-.04-.02-.073-.04-.113-.06A.948.948,0,0,0,6.12,9.3a.7.7,0,0,0-.607.187,1.263,1.263,0,0,0-.08.1.365.365,0,0,0-.06.113.478.478,0,0,0-.04.127.875.875,0,0,0-.013.127.673.673,0,0,0,.053.26.657.657,0,0,0,.14.213.793.793,0,0,0,.22.147.711.711,0,0,0,.127.033.406.406,0,0,0,.127.013.647.647,0,0,0,.473-.193.658.658,0,0,0,.193-.473.406.406,0,0,0-.013-.127A.853.853,0,0,0,6.607,9.7Zm0,0" transform="translate(-1.773 -3.096)" fill="#f7444e"/>
      <path id="Path_31" data-name="Path 31" d="M4.487,11.819a.966.966,0,0,0-.067-.113.365.365,0,0,0-.08-.1.639.639,0,0,0-.22-.147.68.68,0,0,0-.727.147,1.22,1.22,0,0,0-.08.1.723.723,0,0,0-.1.24.87.87,0,0,0-.013.133.691.691,0,0,0,.193.466.649.649,0,0,0,.727.147.557.557,0,0,0,.22-.147.646.646,0,0,0,.193-.466.461.461,0,0,0-.013-.133.9.9,0,0,0-.034-.127Zm0,0" transform="translate(-1.067 -3.804)" fill="#f7444e"/>
      <path id="Path_32" data-name="Path 32" d="M12.356,12.747a.67.67,0,0,0,.253-.053.711.711,0,0,0,.36-.36.665.665,0,0,0,.053-.253.654.654,0,0,0-.2-.473.666.666,0,0,0-.6-.18.846.846,0,0,0-.127.033c-.04.02-.073.04-.113.06a.931.931,0,0,0-.187.187c-.02.04-.04.073-.06.113a.941.941,0,0,0-.033.127.45.45,0,0,0-.013.133.645.645,0,0,0,.193.466.654.654,0,0,0,.473.2Zm0,0" transform="translate(-3.896 -3.804)" fill="#f7444e"/>
      <path id="Path_33" data-name="Path 33" d="M14,10.426a.633.633,0,0,0,.22.147.655.655,0,0,0,.253.047.669.669,0,0,0,.473-.193.652.652,0,0,0,.14-.213.7.7,0,0,0,.053-.26.672.672,0,0,0-.193-.466.685.685,0,0,0-.727-.147.633.633,0,0,0-.22.147.645.645,0,0,0-.193.466.619.619,0,0,0,.193.473Zm0,0" transform="translate(-4.603 -3.097)" fill="#f7444e"/>
      <path id="Path_34" data-name="Path 34" d="M16.343,8.453A.657.657,0,0,0,16.6,8.5a.667.667,0,0,0,.473-1.133.687.687,0,0,0-.727-.147.557.557,0,0,0-.22.147.667.667,0,0,0,0,.94.633.633,0,0,0,.22.146Zm0,0" transform="translate(-5.31 -2.391)" fill="#f7444e"/>
      <path id="Path_35" data-name="Path 35" d="M39.668,38.5l-3.054-1.512A3.313,3.313,0,0,1,34.759,34v-.528a4.678,4.678,0,0,0-2.353-4.055l-3.6-2.057a2,2,0,0,0-.453-2.118l-.486-.486a1.994,1.994,0,0,0-.066-2.592L16.54,9.711l.966-.966a.667.667,0,0,0,0-.943L15.621,5.916a.667.667,0,0,0-.471-.2.651.651,0,0,0-.359.12,7.333,7.333,0,1,0-8.672,8.672A.653.653,0,0,0,6,14.873a.667.667,0,0,0,.2.471l1.885,1.885a.666.666,0,0,0,.943,0l.965-.966L22.442,27.521a1.979,1.979,0,0,0,2.591.067l.487.487a1.98,1.98,0,0,0,2.4.319l3.829,2.186a3.339,3.339,0,0,1,1.681,2.891V34a4.637,4.637,0,0,0,2.6,4.182l3.055,1.512a.677.677,0,0,0,.95-.448.667.667,0,0,0-.358-.752ZM3.364,3.087A6,6,0,0,1,13.6,7l-.333.333a.667.667,0,0,0-.725-1.088.8.8,0,0,0-.22.147.675.675,0,0,0-.193.466.871.871,0,0,0,.013.133.478.478,0,0,0,.04.127.365.365,0,0,0,.06.113.655.655,0,0,0,.08.1.693.693,0,0,0,.473.2.679.679,0,0,0,.471-.2l-1.41,1.411a.673.673,0,0,0,.193-.467.726.726,0,0,0-.053-.26.662.662,0,0,0-.14-.214.686.686,0,0,0-.727-.146.638.638,0,0,0-.22.146.663.663,0,0,0-.14.214.726.726,0,0,0-.053.26.672.672,0,0,0,.193.467.557.557,0,0,0,.22.147.666.666,0,0,0,.254.053.678.678,0,0,0,.472-.2l-1.4,1.4a.7.7,0,0,0,.18-.452.665.665,0,0,0-.053-.253.627.627,0,0,0-.14-.22.967.967,0,0,0-.22-.146.666.666,0,0,0-.507,0,.673.673,0,0,0-.367.367.712.712,0,0,0,0,.507.967.967,0,0,0,.147.22.616.616,0,0,0,.22.14.664.664,0,0,0,.253.053.694.694,0,0,0,.452-.18l-1.4,1.4a.679.679,0,0,0,.2-.472.665.665,0,0,0-.053-.253.559.559,0,0,0-.146-.22.675.675,0,0,0-.94,0,.64.64,0,0,0-.147.22.661.661,0,0,0-.047.253.671.671,0,0,0,.193.473.655.655,0,0,0,.213.14.721.721,0,0,0,.26.053.67.67,0,0,0,.467-.193L7.606,12.987a.679.679,0,0,0,.2-.471.691.691,0,0,0-.2-.473.657.657,0,0,0-.1-.08.379.379,0,0,0-.113-.06.461.461,0,0,0-.127-.04.683.683,0,0,0-.6.18.787.787,0,0,0-.146.22A.665.665,0,0,0,7.6,12.99l-.333.333A6,6,0,0,1,3.364,3.087ZM8.55,15.815l-.943-.943L15.15,7.33l.943.943-.943.942ZM23.336,26.532,10.931,15.319,15.6,10.653,26.809,23.059a.667.667,0,0,1-.023.919l-2.533,2.534a.667.667,0,0,1-.916.021Zm3.127.6-.471-.471.943-.943.471.471a.667.667,0,1,1-.943.943Zm0,0" transform="translate(-0.092 0)" fill="#f7444e"/>
      <path id="Path_36" data-name="Path 36" d="M53.056,3.849a.666.666,0,0,0-.6-.092l-8,2.667A.667.667,0,0,0,44,7.056v5.7a2.638,2.638,0,0,0-1.333-.37,2.667,2.667,0,1,0,2.667,2.667V7.537L52,5.314v4.779a2.638,2.638,0,0,0-1.333-.37,2.667,2.667,0,1,0,2.667,2.667v-8a.666.666,0,0,0-.277-.541ZM42.667,16.39A1.333,1.333,0,1,1,44,15.056,1.333,1.333,0,0,1,42.667,16.39Zm8-2.667A1.333,1.333,0,1,1,52,12.39,1.333,1.333,0,0,1,50.667,13.723Zm0,0" transform="translate(-13.333 -1.241)" fill="#8d8d8d"/>
      <path id="Path_37" data-name="Path 37" d="M13.817,36.749,4.483,39.416A.667.667,0,0,0,4,40.057v7.037a2.638,2.638,0,0,0-1.333-.37A2.667,2.667,0,1,0,5.333,49.39V43.227l8-2.271v3.471A2.638,2.638,0,0,0,12,44.057a2.667,2.667,0,1,0,2.667,2.667V37.39a.667.667,0,0,0-.85-.641ZM2.667,50.723A1.333,1.333,0,1,1,4,49.39,1.333,1.333,0,0,1,2.667,50.723Zm2.667-8.882V40.559l8-2.285v1.3ZM12,48.057a1.333,1.333,0,1,1,1.333-1.333A1.333,1.333,0,0,1,12,48.057Zm0,0" transform="translate(0 -12.241)" fill="#8d8d8d"/>
    </g>
  </g>
</svg>
