<svg xmlns="http://www.w3.org/2000/svg" xmlns:xlink="http://www.w3.org/1999/xlink" width="14" height="14" viewBox="0 0 14 14">
  <defs>
    <clipPath id="clip-path">
      <rect id="Rectangle_3327" data-name="Rectangle 3327" width="14" height="14" fill="#3f65ae" stroke="#707070" stroke-width="1"/>
    </clipPath>
  </defs>
  <g id="Mask_Group_179" data-name="Mask Group 179" clip-path="url(#clip-path)">
    <g id="instagram">
      <g id="Group_685" data-name="Group 685">
        <g id="Group_684" data-name="Group 684">
          <path id="Path_12191" data-name="Path 12191" d="M9.625,0H4.375A4.375,4.375,0,0,0,0,4.375v5.25A4.375,4.375,0,0,0,4.375,14h5.25A4.375,4.375,0,0,0,14,9.625V4.375A4.375,4.375,0,0,0,9.625,0Zm3.063,9.625a3.066,3.066,0,0,1-3.062,3.063H4.375A3.066,3.066,0,0,1,1.313,9.625V4.375A3.066,3.066,0,0,1,4.375,1.313h5.25a3.066,3.066,0,0,1,3.063,3.063Z" fill="#3f65ae"/>
        </g>
      </g>
      <g id="Group_687" data-name="Group 687" transform="translate(3.5 3.5)">
        <g id="Group_686" data-name="Group 686">
          <path id="Path_12192" data-name="Path 12192" d="M8.5,5A3.5,3.5,0,1,0,12,8.5,3.5,3.5,0,0,0,8.5,5Zm0,5.688A2.188,2.188,0,1,1,10.688,8.5,2.191,2.191,0,0,1,8.5,10.688Z" transform="translate(-5 -5)" fill="#3f65ae"/>
        </g>
      </g>
      <g id="Group_689" data-name="Group 689" transform="translate(10.296 2.771)">
        <g id="Group_688" data-name="Group 688">
          <circle id="Ellipse_77" data-name="Ellipse 77" cx="0.466" cy="0.466" r="0.466" fill="#3f65ae"/>
        </g>
      </g>
    </g>
  </g>
</svg>
