<svg xmlns="http://www.w3.org/2000/svg" xmlns:xlink="http://www.w3.org/1999/xlink" width="14" height="14" viewBox="0 0 14 14">
  <defs>
    <clipPath id="clip-path">
      <rect id="Rectangle_3329" data-name="Rectangle 3329" width="14" height="14" fill="#3f65ae" stroke="#707070" stroke-width="1"/>
    </clipPath>
  </defs>
  <g id="Mask_Group_181" data-name="Mask Group 181" clip-path="url(#clip-path)">
    <g id="twitter" transform="translate(0 1.313)">
      <g id="Group_690" data-name="Group 690">
        <path id="Path_12193" data-name="Path 12193" d="M14,2.847a5.984,5.984,0,0,1-1.654.453,2.854,2.854,0,0,0,1.263-1.586,5.736,5.736,0,0,1-1.82.695A2.87,2.87,0,0,0,6.824,4.371a2.955,2.955,0,0,0,.067.655,8.124,8.124,0,0,1-5.916-3,2.871,2.871,0,0,0,.882,3.836,2.834,2.834,0,0,1-1.3-.353v.031a2.883,2.883,0,0,0,2.3,2.82,2.865,2.865,0,0,1-.753.094A2.538,2.538,0,0,1,1.564,8.4a2.9,2.9,0,0,0,2.682,2A5.767,5.767,0,0,1,.687,11.626,5.376,5.376,0,0,1,0,11.587a8.08,8.08,0,0,0,4.4,1.288,8.113,8.113,0,0,0,8.169-8.167c0-.127,0-.249-.011-.371A5.726,5.726,0,0,0,14,2.847Z" transform="translate(0 -1.5)" fill="#3f65ae"/>
      </g>
    </g>
  </g>
</svg>
